<?xml version="1.0" encoding="UTF-8"?>
<!DOCTYPE svg PUBLIC "-//W3C//DTD SVG 1.1//EN" "http://www.w3.org/Graphics/SVG/1.1/DTD/svg11.dtd">
<!-- Creator: CorelDRAW 2021 (64-Bit) -->
<svg xmlns="http://www.w3.org/2000/svg" xml:space="preserve" width="2075px" height="733px" version="1.1" style="shape-rendering:geometricPrecision; text-rendering:geometricPrecision; image-rendering:optimizeQuality; fill-rule:evenodd; clip-rule:evenodd"
viewBox="0 0 2139.68 755.86"
 xmlns:xlink="http://www.w3.org/1999/xlink"
 xmlns:xodm="http://www.corel.com/coreldraw/odm/2003">
 <defs>
  <style type="text/css">
   <![CDATA[
    .fil7 {fill:#042218}
    .fil6 {fill:#062e24}
    .fil0 {fill:#0a3d2f}
    .fil1 {fill:#0b4a3a}
    .fil8 {fill:#08352a}
    .fil3 {fill:#0d5c47}
    .fil4 {fill:#0e5f4a}
    .fil2 {fill:#0f6b4f}
    .fil9 {fill:#117a5e}
    .fil5 {fill:#0c5240}
   ]]>
  </style>
 </defs>
 <g id="Layer_x0020_1">
  <metadata id="CorelCorpID_0Corel-Layer"/>
  <path class="fil0" d="M2080.32 582.96c27.79,-11.16 30.78,37.31 13.23,43.43 -13.33,4.64 -21.9,-4.67 -23.84,-15.13 -2.33,-12.51 0.63,-24.29 10.61,-28.3zm21.97 53c-0.08,10.37 -0.32,17.5 -9.25,20.72 -12.43,4.49 -16.41,-2.97 -23.05,-6.39 -3.79,1.49 -10.03,4.65 -12.12,7.37 8.15,19.21 48.48,20.78 57.94,-1.08 4.63,-10.71 2.87,-71.48 2.37,-87.18 -2.14,-0.22 -7.42,-0.56 -9.42,-0.23 -6.56,1.08 -1.95,-0.25 -5.35,4.53 -10.68,-5.71 -21.48,-10.66 -34.98,-2.29 -22.18,13.73 -19.91,52.39 -1.92,64.61 14.34,9.74 23.05,4.94 35.78,-0.06z"/>
  <path class="fil0" d="M842.53 575.34l-2.29 -6.15 -11.6 -0.13 -0.16 70.43 16.05 0.2c0.56,-11.49 0.29,-24.63 0.05,-35.8 -0.26,-12.25 0.13,-23.64 13.77,-22.66 23.24,1.69 7.24,43.34 13.57,58.46 7.98,0.99 13.65,1.45 14.6,-2.95 3.21,-14.96 -8.63,-54.97 13.2,-55.1 19.79,-0.12 12.01,26.66 13.18,58.02l15.67 0c1.07,-12.86 1.8,-50.66 -2.91,-60.52 -3.47,-7.28 -9.44,-11.62 -20.22,-11.73 -12.43,-0.12 -15.66,4.72 -22.87,9.17 -4.11,-4.66 -10.18,-8.93 -19.46,-9.05 -11.66,-0.14 -13.76,4.06 -20.58,7.81z"/>
  <path class="fil0" d="M1006.27 581.8c12.83,-2.8 19.6,6.01 20.66,17.47 1.17,12.63 -1.49,25.19 -12.88,27.73 -25.94,5.79 -30.6,-40.2 -7.78,-45.2zm19.49 54.91c-0.66,10.64 -0.57,16.81 -9.21,19.98 -9.47,3.47 -17.55,-0.22 -21.31,-6.33 -5.96,0.78 -9.87,3.95 -14.35,5.91 1.84,8.98 15.92,16.03 28.65,16.08 14.22,0.06 25.41,-5.4 29.6,-15.96 3.95,-9.93 2.03,-59.43 2.25,-76.54 0.02,-1.44 0.17,-4.48 0.05,-5.74 -0.29,-3.3 0.08,-6.36 -8.91,-5.31 -4.94,0.58 -3.22,0.85 -5.82,3.79 -12.63,-4.1 -19.74,-9.83 -35.58,-0.89 -20.67,11.66 -21.08,50.21 -1.96,64.02 15.19,10.96 27.99,3.78 36.59,0.99z"/>
  <path class="fil0" d="M1535.18 611.32l-14.21 -4.62c-3.65,4.02 -9.62,25.24 -33.46,19.22 -14.05,-3.55 -20.98,-15.66 -21.36,-32.33 -0.97,-42.51 43.91,-46.14 53.44,-15.81l15.12 -3.46c0.44,-9.48 -10.72,-21.36 -16.62,-24.83 -25.18,-14.79 -68.61,-5.39 -68.62,42.96 -0.01,50.35 46.4,56.59 68.61,42.97 5.74,-3.52 17.05,-15.09 17.1,-24.1z"/>
  <path class="fil0" d="M1149.28 605.87c-0.42,29.45 -23.27,23.59 -27.23,20.54 -7.54,-5.82 -2.32,-13.35 5.36,-15.57 5.6,-1.62 16.06,-4.38 21.87,-4.97zm-43.08 -20.28l5.77 2.84c3.53,1.28 3.75,1.55 7.4,1.8 4.24,-4.47 6.98,-8.72 16,-8.73 8.93,-0.02 13.33,3.14 13.79,10.95 -9.44,6.84 -47.98,0.18 -45.78,29.66 1.79,24.07 35.8,23.38 46.87,10.41 0.18,0.25 0.27,0.41 0.31,0.85 0.75,8.1 2.57,6.28 3.46,6.57 2.05,0.65 8.77,0.04 10.8,-0.58 1.24,-6.38 0,-28.39 -0.06,-36.61 -0.1,-13.84 0.91,-22.31 -8.09,-29.32 -15.51,-12.06 -47.48,-6.12 -50.47,12.16z"/>
  <path class="fil0" d="M1318.69 611.9c-4.76,23.43 -42.88,20.82 -35.71,-15.88 2.15,-10.98 12.7,-17.95 25.37,-12.92 10.03,3.97 12.85,16.48 10.34,28.8zm-25.19 -43.82c-10.77,2.04 -17.53,6.47 -22.15,13.95 -4.85,7.86 -7.42,19.45 -5.44,30.84 3.21,18.5 20.1,32.39 42.65,27.97 19.69,-3.86 30.72,-21.45 26.48,-44.44 -3.53,-19.16 -18.73,-32.63 -41.54,-28.32z"/>
  <path class="fil1" d="M1596.36 611.9c-4.79,25.64 -42.32,18.61 -34.97,-15.61 4.87,-22.65 41.82,-20.97 34.97,15.61zm-25.73 -43.62c-22.32,5.5 -30.11,26.39 -25.93,45.1 4.11,18.41 19.7,32.54 42.6,27.26 43.84,-10.1 30.58,-84 -16.67,-72.36z"/>
  <path class="fil2" d="M1992.47 575.21l-3.24 -6.02 -11.13 -0.2c-2.43,5.64 -1.51,60.9 -0.94,70.6l15.95 0.08c1.11,-18.8 -7.95,-58.16 16.26,-57.85 23.57,0.31 13.87,40.08 16,57.56l15.31 0.51c0.72,-14.41 2,-50.43 -4.2,-60.81 -8.11,-13.62 -32.04,-15.56 -44.01,-3.87z"/>
  <path class="fil3" d="M1363.03 574.51c-0.17,-0.28 -0.35,-1.06 -0.42,-0.88 -0.94,2.49 0.22,-1.41 -2.25,-4.62l-11.42 -0.09 -0.72 70.74 16 0.08c1.32,-18.39 -8.22,-57.73 15.99,-58.01 24.05,-0.28 14.43,38.66 16.35,57.36 4.7,1.24 10.56,1.3 15.23,-0.07 0.93,-13.33 1.69,-49.66 -3.94,-59.32 -9.04,-15.56 -29.41,-15.23 -44.82,-5.19z"/>
  <path class="fil0" d="M1717.17 617.17l-16.01 2.33c3.14,25.86 44.08,28.38 56.16,12.59 5.32,-6.95 8.44,-22.12 -6.31,-29.58 -9.06,-4.58 -26.36,-5.02 -31.26,-12.34 -0.02,-7.21 5.15,-9.99 12.76,-9.46 9.72,0.67 9.27,5.17 13.74,9.76l13.92 -3.54c-2.57,-21.43 -38.65,-26.15 -52.16,-10.99 -4.9,5.5 -6.85,14.01 -2.34,21.59 8.56,14.38 26.55,8.86 36.66,17.15 12.98,10.63 -18.3,23.11 -25.16,2.49z"/>
  <path class="fil0" d="M1185.23 568.05l-11.24 0.78c-0.13,0.58 -0.26,0.72 -0.3,1.22 -0.21,2.86 -1.69,4.82 -0.09,11.55l12.02 0.2c-0.15,9.98 -1.02,38.58 1.26,46.14 4.7,15.6 25.55,14.69 34.51,11.81 1.58,-3.37 1.1,-8.07 0.75,-12.82 -21.32,-1.37 -22.43,7.18 -20.71,-45.32l19.22 0c1.68,-3.95 1.37,-8.62 0.45,-12.86l-19.81 -0.05c0.12,-20.29 3.1,-22.04 -15.16,-20.32 -2.12,5.66 -0.52,13.42 -0.9,19.67z"/>
  <path class="fil4" d="M1797.63 625.49c-2.72,2.87 1.4,1.73 -3.13,1.16 -1.92,-0.24 -5.53,-4.82 -7.06,-6.76 -3.33,-4.23 -2.99,-9.05 -2.56,-16.04 0.62,-10.16 2.97,-23.37 -0.94,-32.2l-7.13 0.21c-3.98,7.96 -2.07,39.45 1,47.55 9.32,24.6 24.92,16.55 29.68,21.73 10.51,-3.31 9.37,-5.12 15.41,-8.2l1.4 4.88c0.11,0.28 0.33,0.69 0.43,0.92 0.1,0.24 0.25,0.66 0.46,0.94l11.56 0.12c0.45,-11.79 0.06,-24.24 0.1,-35.91l-0.19 -30.84c-0.07,-0.37 -0.14,-0.66 -0.23,-0.99l-0.76 -1.78c-1.04,-2.57 -12.15,-1.58 -13.47,-0.28 -6.53,6.46 12.13,67.88 -24.57,55.49z"/>
  <path class="fil0" d="M1893.57 568.51l-11.28 0.31c-1.66,3.69 -1.72,8.65 -0.38,12.67l11.64 0.32c0.46,11.38 -1.47,38.8 1.46,47.2 2.17,6.23 6.49,9.24 12.87,11.12 3.69,1.09 7.07,1.42 11.11,1.35 12.32,-0.21 11.49,-2.74 10.63,-13.94 -8.62,-3.08 -19.54,4.86 -20.38,-12.21 -0.41,-8.21 -0.76,-25.94 0.13,-33.63l20.13 -0.36c0.55,-4.68 0.94,-8.14 -0.7,-12.32l-19.58 -0.22c-0.22,-18.04 5.4,-22.87 -14.82,-20.32 -2.37,5.51 -0.63,13.8 -0.83,20.03z"/>
  <path class="fil2" d="M1642.15 639.68c-0.28,-0.26 -1.22,-1.56 -1.35,-1.84 -2.19,-4.72 -2.36,-34 -1.77,-37.44l3.38 -12.24c4.86,-13.75 36.52,-14.67 35.94,15.71 -0.59,31.26 -6.32,32.15 8.81,32.68 0.75,-8.77 0.02,-16.9 0.07,-25.82 0.02,-4.41 0.21,-7.87 -0.14,-12.52 -0.31,-4.13 -1.42,-7.28 -0.5,-10.13 1.22,-3.82 -2.06,0.08 1.68,-2.59 -2.87,-9.71 -8.31,-14.86 -18.47,-17.32 -13.5,-3.26 -19.9,1.93 -28.79,6.09l-2.31 -3.6c-0.15,-0.22 -0.43,-0.6 -0.55,-0.78 -0.13,-0.19 -0.36,-0.55 -0.57,-0.8l-11.47 -0.07 -0.17 70.35 16.21 0.32z"/>
  <path class="fil0" d="M1854.62 639.54l15.67 0.46 0.01 -91.08c-0.09,-1.63 -0.03,-1.65 -0.39,-3.26 -0.96,-4.29 -0.19,-1.34 -1.05,-2.82l-13.7 -0.41c-1.82,5.27 -1.28,86.46 -0.54,97.11z"/>
  <polygon class="fil0" points="682.95,639.05 698.85,639.69 698.93,545.47 682.92,545.2 "/>
  <path class="fil4" d="M1057.9 593.6l0.06 45.37 15.73 0.73c1.74,-21.8 -4.23,-43.72 6.9,-52.85 6.25,-5.13 9.22,-2.53 16.37,-4.19 1.5,-10.92 2.58,-15.87 -9.1,-13.8 -7.18,1.28 -12.76,6.54 -16.25,9.47 -0.62,-4.42 0.96,-7.35 -2.12,-9.1 -2.18,-1.24 -9.59,-0.87 -10.79,0.31 -2.9,2.83 -0.8,18.79 -0.8,24.06z"/>
  <path class="fil4" d="M1943.67 639.63l15.36 0.17c1.2,-4.39 1.13,-62.44 0.53,-69.73 -4.66,-1.77 -10.77,-0.96 -15.91,-0.85l0.02 70.41z"/>
  <path class="fil4" d="M1235.88 639.65c4.96,0.49 11.05,1 15.6,-0.81l0.13 -61.35c0.04,-8.51 0.87,-9.38 -14.98,-8.36 -2.17,4.89 -1.36,61.31 -0.75,70.52z"/>
  <polygon class="fil5" points="945.48,639.42 961.39,639.6 961.55,569.51 945.47,569.06 "/>
  <path class="fil6" d="M1642.15 639.68c0.9,-18.27 -6.6,-57.16 14.86,-58.06 24.88,-1.05 15.91,39.25 17.32,57.55l15.48 0.36c0.6,-14.17 0.8,-41.55 -1.54,-54.04 -3.74,2.67 -0.46,-1.23 -1.68,2.59 -0.92,2.85 0.19,6 0.5,10.13 0.35,4.65 0.16,8.11 0.14,12.52 -0.05,8.92 0.68,17.05 -0.07,25.82 -15.13,-0.53 -9.4,-1.42 -8.81,-32.68 0.58,-30.38 -31.08,-29.46 -35.94,-15.71l-3.38 12.24c-0.59,3.44 -0.42,32.72 1.77,37.44 0.13,0.28 1.07,1.58 1.35,1.84z"/>
  <path class="fil7" d="M1807.49 641.14c-4.76,-5.18 -20.36,2.87 -29.68,-21.73 -3.07,-8.1 -4.98,-39.59 -1,-47.55l7.13 -0.21c3.91,8.83 1.56,22.04 0.94,32.2 -0.43,6.99 -0.77,11.81 2.56,16.04 1.53,1.94 5.14,6.52 7.06,6.76 4.53,0.57 0.41,1.71 3.13,-1.16 -8.08,-8.39 -8.41,-9.24 -8.56,-23.85 -0.08,-7.61 1.27,-26.57 -1.14,-32.5 -18.53,-2.46 -15.23,1.35 -15.11,13.01 0.11,10.58 -0.7,30.9 1.68,39.22 5.38,18.77 13.8,18.71 32.99,19.77z"/>
  <polygon class="fil4" points="945.48,558.11 961.62,558.36 961.67,543.18 945.57,542.75 "/>
  <path class="fil8" d="M1943.36 557.55c5.11,1.14 11.43,1.39 16.2,0.03l-0.02 -14.7 -16.13 0.18 -0.05 14.49z"/>
  <path class="fil8" d="M1235.44 558.37l16.25 -0.05 -0.06 -14.07c-1.45,-0.81 -0.87,-0.7 -3.1,-1.19l-12.58 0.11 -0.51 15.2z"/>
  <path class="fil9" d="M368.79 261.84c-5.95,-28.14 4.69,-80.49 14.58,-103.77 6.58,-15.47 13.25,-26.97 22,-38.16 27.68,-35.36 63.72,-54.55 109.51,-68.67 20.66,-6.37 79.75,-19.02 102.14,-17.21 -1.91,67.49 -22.79,139.03 -54.63,182.77 -35.14,48.28 -106.54,74.8 -168.42,68.16 0.61,-3.85 7.99,-10 13.38,-16.11l58.73 -60.45c14.25,-11.62 20.77,-23.46 29.66,-30.52 4.42,-3.51 11.7,-10.35 13.78,-15.14 -3.06,-5.22 -16.17,-18.88 -21.99,-20.93 -3.3,3.34 -3.75,3.89 -7.84,7.32 -3.26,2.73 -4.03,5.25 -7.02,8.02 -3.18,2.94 -5,3.74 -8.08,6.94l-95.8 97.75zm-79.12 131.01c-3.39,-3.23 -8.51,-21.24 -11.02,-27 -15.37,-35.2 -34.58,-66.58 -59.45,-94.44 -3.38,-3.77 -4.88,-6.63 -8.67,-9.86 -7.96,-6.8 -16.82,-16.91 -23.59,-23.82l-28.02 -22.19c-7.32,1.65 -29.2,15.52 -35.05,19.74 -17.01,12.26 -29.75,21.27 -43.96,37.09 -8.82,9.82 -17.47,18.09 -25.13,29.23 -36.97,53.76 -59.92,114.45 -53.79,191.81 4.32,54.49 28.94,117.31 63.01,155.34 14.99,16.73 22.57,26.61 40.48,40.52 81.64,63.4 171.69,83.57 275.11,51.67 54.97,-16.95 104.54,-56.75 130.15,-88.54 68.75,-85.29 86.36,-191.78 44.09,-294.42 -5.64,-13.72 -13.49,-25.81 -18.36,-37.27l-30.15 13.57c1.47,7.21 43.52,64.45 37.5,152.49 -4.43,64.76 -35.07,125.32 -75.33,162.74 -27.7,25.75 -47.6,40.71 -87.03,56.41 -75.29,29.96 -161.21,20.08 -229.22,-22.94 -9.99,-6.32 -18.6,-13.08 -27.39,-20.04 -2.74,-2.16 -3.38,-3.42 -5.83,-5.7 -2.49,-2.33 -4.25,-3.65 -6.74,-6.02 -4.49,-4.28 -7.55,-8.37 -11.8,-12.5 -14.61,-14.19 -27.98,-34.34 -39.03,-55.81 -46.44,-90.23 -31.48,-198.03 29.85,-273.58 13.22,-16.29 50.42,-50.7 65.15,-55.44 8.65,5.3 27.98,25.31 35.36,34.33 20.15,24.63 30.06,34.6 47.34,68.35 25.25,49.27 32.85,89.24 35.02,151.25l32.82 0.23c0.87,-40.15 3.63,-74.81 16.75,-109.81 11.59,-30.91 27.4,-61.25 44.29,-82.6 26.35,0.76 43.99,4.12 71.85,0.94 60.46,-6.88 113.6,-33.59 148.1,-77.54 42.39,-54 65.43,-152.77 63.25,-238.87 -90.76,-2.65 -221.33,25.97 -275.61,106.37 -63.1,93.47 -30.05,181.34 -35.1,192.83l-19.08 28.39c-5.81,9.24 -11.29,20.49 -16.36,31.09 -2.56,5.34 -12.79,32.45 -14.41,34z"/>
  <path class="fil9" d="M2017.51 436.91c-0.71,-13.48 -1.58,-113.2 0.35,-119.61 35.43,-1.34 67.8,-4.03 85.67,27.54 19.04,33.64 5.9,90.45 -46.98,92.48 -9.65,0.37 -30.19,0.99 -39.04,-0.41zm-27.56 26.33c7.01,2.44 47.77,0.77 58.49,0.81 18.19,0.06 35.69,-2.41 49.15,-10.28 56.98,-33.35 55.11,-120.68 0.42,-152.03 -14.29,-8.19 -29.19,-11.21 -48.42,-11.04 -10.27,0.09 -53.47,-1.56 -59.63,0.94l-0.01 171.6z"/>
  <path class="fil9" d="M1862.56 374.36l-0.12 -57.19c8.06,-0.88 42.91,-1.04 49.76,0.39 31.42,6.53 30.18,49.73 0.41,56.52 -6.51,1.48 -43.82,1.87 -50.05,0.28zm-27.76 88.81c6.73,2.19 20.36,1 27.85,0.72l-0.14 -47.75c0,-4.18 -0.87,-13.19 1.03,-14.93 3.43,-1.72 27.6,-1.51 33.28,-0.88 6.74,0.75 11.31,13.93 14.73,19.61l25.47 43.81 31.54 0.38 -19.43 -34.27c-4.18,-7.11 -17.95,-28.65 -19.6,-34.53 15.22,-7.72 26.01,-15.57 31.73,-34.04 6.2,-20.05 -0.38,-41.17 -11.85,-52.08 -14.86,-14.13 -24.61,-18.65 -47.92,-18.52 -10.93,0.06 -60.38,-1.29 -66.72,0.76l0.03 171.72z"/>
  <path class="fil9" d="M1671.49 360.29c24.87,-5.45 43.53,10.7 47.63,31.12 4.99,24.8 -9.4,44.87 -28.97,49.44 -53.83,12.57 -69.31,-69.47 -18.66,-80.56zm48.73 -7.25c-5.62,-3.16 -7.06,-6.84 -13.29,-10.82 -36.05,-23.08 -93.46,2.88 -93.36,57.73 0.12,66.43 71.9,82.16 99.37,54.47 4.99,-5.03 2.47,-4.18 7.44,-6.37l-0.2 15.14c6.42,2.11 19.5,1.09 26.51,0.62l0.1 -175.45 -26.58 0.17 0.01 64.51z"/>
  <path class="fil9" d="M1196.97 410.3c-4.05,0.4 -20.18,9.97 -24.64,12.33 2.71,15.93 18.83,30.2 30.55,36.12 28.9,14.61 78.97,12.53 97.48,-17.78 8.63,-14.14 8,-38.9 -1.78,-51.38 -9.56,-12.19 -27.87,-19.35 -42.59,-23.43 -16.02,-4.43 -39.43,-8.46 -45.82,-20.1 -8.9,-16.21 3.86,-32.04 27.14,-32.46 9.95,-0.19 19.32,2.21 26.36,6.78 9.45,6.13 9.19,9.46 15.64,17.84 5.77,-2 16.83,-9.17 22.81,-12.28 -1.97,-12.85 -20.61,-27.45 -32.11,-32.76 -16.71,-7.71 -39.02,-7.74 -56.75,-1.8 -39.22,13.12 -43.31,61.53 -17.46,80.65 28.38,21 85.69,15.37 81.46,48.43 -2.29,17.9 -24.83,22.69 -44.38,19.63 -20.02,-3.14 -29.82,-13.54 -35.91,-29.79z"/>
  <path class="fil9" d="M1496.97 388.89c-2.16,-7.77 8.21,-19.19 11.5,-22.11 25.87,-22.94 64.85,1.09 60.88,22.35l-72.38 -0.24zm94.97 48.08c-4.12,-3.4 -15.98,-10.39 -21.38,-11.42 -10.61,11.13 -20.25,21.74 -43.89,17.08 -16.13,-3.19 -28.35,-15.72 -30.97,-32 19.17,-3.18 89.36,1.79 101.01,-0.73 7.35,-27.81 -11.62,-65.15 -45.61,-73.76 -38.92,-9.86 -69.81,13.48 -79.2,40.38 -18.8,53.82 27.3,104.33 84.78,88.16 13.58,-3.82 31.95,-15.74 35.26,-27.71z"/>
  <path class="fil9" d="M1351.19 388.99c-0.86,-9.18 7.59,-18.06 11.76,-21.94 23.36,-21.71 63.18,-2.86 61.07,22.03l-72.83 -0.09zm94.94 47.98c-3.39,-3.37 -14.9,-9.33 -20.2,-11.47 -5.88,3.28 -16.16,22.72 -44.1,17.28 -15.94,-3.1 -28.81,-15.82 -31.09,-32.41 22.62,-1.12 68.08,-0.98 92.62,0.05 9.33,0.4 9.24,0.78 9.14,-9.26 -0.11,-11.84 -1.84,-20.8 -6.12,-30.9 -24.62,-58.06 -121.03,-43.74 -123.66,26.17 -3.17,84.64 106.8,87.41 123.41,40.54z"/>
  <path class="fil9" d="M999.45 388.93c-2.24,-7.89 7.52,-19.76 11.05,-22.56 5.93,-4.7 15.1,-8.58 25.48,-8.66 11.01,-0.08 20.26,4.18 26.11,9.2 3.86,3.32 10.7,13.9 10.57,22.23l-73.21 -0.21zm95 48.36c-3.24,-3.23 -16.38,-10.64 -21.44,-12.05 -28.59,34.16 -69.4,16.05 -74.83,-14.67 13.11,-2.3 71.73,-0.85 92.26,-0.32 9.29,0.25 9.73,0.87 9.76,-9.08 0.23,-89.31 -126.12,-88.87 -129.45,-3.58 -1.78,45.49 34.64,75.02 79.02,69.12 18.19,-2.43 37.6,-13.02 44.68,-29.42z"/>
  <path class="fil9" d="M834.23 463.8c7.01,0.38 20.24,1.19 26.53,-0.68 1.11,-21.61 -0.49,-44.83 0,-66.66 0.46,-21.15 10.76,-36.62 31.71,-37.57 22.96,-1.05 30.82,14.92 30.99,36.4 0.19,22.52 -0.84,46.19 0,68.51l26.67 0.21c0.99,-19.12 -0.03,-40.5 0.03,-59.44 0.06,-19.73 1.09,-35.35 -8.62,-50.13 -13.54,-20.61 -42.69,-25.4 -62.94,-15.9 -3.67,1.72 -6.82,3.55 -9.24,5.86 -3.54,3.38 -3.13,4.54 -8.84,7.66l0.41 -63.09c-5.96,-1.61 -19.96,-0.87 -26.68,-0.56l-0.02 175.39z"/>
  <path class="fil9" d="M682.92 316.9l50.77 0.35c1.04,2.02 0.49,0.44 1.02,3.07l0.28 69.21c0.03,24.76 -0.17,49.57 -0.08,74.32l27.83 0.1c1.53,-23.99 -1.93,-138.04 0.73,-146.72 10.09,-0.32 44.33,1.54 51.05,-0.89l-0.21 -25.18 -131.12 -0.45 -0.27 26.19z"/>
  <path class="fil0" d="M728.87 575.34l-2.29 -6.15 -11.6 -0.13 -0.16 70.43 16.05 0.2c0.56,-11.49 0.29,-24.63 0.05,-35.8 -0.26,-12.25 0.12,-23.64 13.77,-22.66 23.24,1.69 7.24,43.34 13.57,58.46 7.98,0.99 13.65,1.45 14.6,-2.95 3.21,-14.96 -8.63,-54.97 13.2,-55.1 19.78,-0.12 12.01,26.66 13.18,58.02l15.67 0c1.07,-12.86 1.8,-50.66 -2.91,-60.52 -3.48,-7.28 -9.45,-11.62 -20.22,-11.73 -12.43,-0.12 -15.67,4.72 -22.88,9.17 -4.1,-4.66 -10.18,-8.93 -19.45,-9.05 -11.66,-0.14 -13.76,4.06 -20.58,7.81z"/>
 </g>
</svg>
